<svg xmlns="http://www.w3.org/2000/svg" viewBox="0 0 219.82 161.41"><defs><style>.cls-1{font-size:52.5px;}.cls-1,.cls-2,.cls-3{fill:#5c3795;stroke:#231f20;stroke-width:0.1px;font-family:Pacifico-Bold, Pacifico;font-weight:700;}.cls-1,.cls-2,.cls-3,.cls-5,.cls-6{stroke-miterlimit:10;}.cls-2{font-size:50px;}.cls-3{font-size:27.76px;}.cls-4,.cls-5{fill:none;}.cls-4,.cls-5,.cls-6{stroke:#5c3795;}.cls-4,.cls-7{stroke-linecap:round;stroke-linejoin:round;}.cls-4,.cls-5,.cls-6,.cls-7{stroke-width:6.03px;}.cls-6,.cls-7{fill:#e4b3d0;}.cls-7{stroke:#e4b3d0;}</style></defs><g id="Layer_2" data-name="Layer 2"><g id="Layer_1-2" data-name="Layer 1"><text class="cls-1" transform="translate(0.05 66.71) scale(0.96 1)">Cleaning</text><text class="cls-2" transform="translate(24.63 111.83)">Love</text><text class="cls-3" transform="translate(73.89 89.41)">with</text><path class="cls-4" d="M153.13,16.3h33.8l15.84,15.83v6s-9.7-1.75-12.41,6.42H170.24s1.26-16.26-16.71-16.26v-12Z"/><path class="cls-5" d="M153.13,16.3h-6.57a2.69,2.69,0,0,0-2.7,2.69V25.5a2.7,2.7,0,0,0,2.7,2.7h6.57Z"/><rect class="cls-5" x="170.24" y="44.54" width="20.17" height="8.39"/><path class="cls-6" d="M180.33,119.58h27.5a9,9,0,0,0,9-9V92.53a9,9,0,0,0-3.41-7c-18.65-14.91-23-32.55-23-32.55H170.24s-4.32,17.64-23,32.55a9,9,0,0,0-3.41,7v18.08a9,9,0,0,0,9,9h27.5"/><path class="cls-5" d="M162.1,29.94s0,5.82-6.39,12.27a1.21,1.21,0,0,0,1,2c3.51-.58,8.75-2.29,12.12-7.29"/><path class="cls-7" d="M120.9,6.25A3.65,3.65,0,0,0,117.57,3a3.59,3.59,0,0,0-2.11.48,3.64,3.64,0,0,0-4,6.07,22.15,22.15,0,0,1,4,3.85h0a22.09,22.09,0,0,1,4-3.85A3.64,3.64,0,0,0,120.9,6.25Z"/><path class="cls-7" d="M120.9,36.51a3.67,3.67,0,0,0-3.33-3.23,3.59,3.59,0,0,0-2.11.48,3.64,3.64,0,0,0-4,6.07,22.85,22.85,0,0,1,4,3.85h0a22.79,22.79,0,0,1,4-3.85A3.63,3.63,0,0,0,120.9,36.51Z"/><line class="cls-4" x1="129.18" y1="11.91" x2="136.22" y2="16.14"/><line class="cls-4" x1="129.18" y1="32.51" x2="136.22" y2="28.28"/><line class="cls-4" x1="136" y1="22.25" x2="121.98" y2="22.25"/><path class="cls-7" d="M110,21.29a3.66,3.66,0,0,0-3.33-3.22,3.62,3.62,0,0,0-2.12.48,3.59,3.59,0,0,0-2.11-.48,3.64,3.64,0,0,0-1.89,6.55,22.42,22.42,0,0,1,4,3.85h0a22.15,22.15,0,0,1,4-3.85A3.64,3.64,0,0,0,110,21.29Z"/><line class="cls-4" x1="180.33" y1="52.94" x2="180.33" y2="98.03"/></g></g></svg>